# xmcd
#
# Track frame offsets:
#	150
#	25825
#	47002
#	89656
#	94646
#	120424
#	148032
#	161867
#	184342
#	193755
#	246612
#
# Disc length: 3535 seconds
#
# Revision: 1
# Processed by: cddbd v1.5.2PL0 Copyright (c) Steve Scherf et al.
# Submitted via: audiograbber 1.83.01
#
DISCID=9e0dcd0b
DTITLE=Bas Paardekooper and the Blew Crue - Broken Heart For Sale
DYEAR=2012
DGENRE=BluesRock
TTITLE0=Boogie Woman
TTITLE1=Never Enough
TTITLE2=Broken Heart For Sale
TTITLE3=Heading For The....
TTITLE4=Night Time
TTITLE5=Jimi (Same Eyes As Mine)
TTITLE6=Confusion
TTITLE7=Breaking My Heart
TTITLE8=Prelude To A Tear
TTITLE9=Her Silent Cries
TTITLE10=Hometown
EXTD=
EXTT0=
EXTT1=
EXTT2=
EXTT3=
EXTT4=
EXTT5=
EXTT6=
EXTT7=
EXTT8=
EXTT9=
EXTT10=
PLAYORDER=
